Coordinates
version=1
nRows=7
nColumns=40
inDegrees=yes

Units are S.I. units (second, meters, Newtons, ...)
Angles are in degrees.

endheader
time	pelvis_tilt	pelvis_list	pelvis_rotation	pelvis_tx	pelvis_ty	pelvis_tz	hip_flexion_r	hip_adduction_r	hip_rotation_r	knee_angle_r	knee_angle_r_beta	ankle_angle_r	subtalar_angle_r	mtp_angle_r	hip_flexion_l	hip_adduction_l	hip_rotation_l	knee_angle_l	knee_angle_l_beta	ankle_angle_l	subtalar_angle_l	mtp_angle_l	lumbar_extension	lumbar_bending	lumbar_rotation	arm_flex_r	arm_add_r	arm_rot_r	elbow_flex_r	pro_sup_r	wrist_flex_r	wrist_dev_r	arm_flex_l	arm_add_l	arm_rot_l	elbow_flex_l	pro_sup_l	wrist_flex_l	wrist_dev_l
     14.43250000	     -4.08676694	     -4.70978017	     -5.07417975	      1.02384718	      0.93694346	      0.41451681	     36.96152326	     -4.28224526	     -4.24627628	     53.60758223	     53.60758223	     -0.17297206	    -14.28913813	      1.10628901	     10.59448107	     -5.87973894	     -9.68119914	     17.51062467	     17.51062467	     11.74087767	    -11.66846488	     -2.03449186	    -13.23216673	      6.71622086	      2.57085449	     -0.29277448	    -13.86509860	     -8.53696575	     40.06652008	     46.90985187	      0.00000000	      0.00000000	     14.17271746	    -18.07348372	      0.83629245	     63.78337348	     46.93594192	      0.00000000	      0.00000000
     14.44385714	     -4.12756608	     -4.87950805	     -5.24201400	      1.02295714	      0.93710051	      0.41481223	     36.89507397	     -4.01211559	     -4.75607230	     49.98678156	     49.98678156	     -0.05714883	    -12.90860144	      1.22315398	      9.83757905	     -6.00063709	     -9.76450430	     17.03518860	     17.03518860	     12.02462304	    -11.52791449	     -2.09539007	    -13.28332208	      7.04713287	      3.02173424	     -2.27950573	    -14.26658340	     -8.64693349	     38.10461135	     46.96420669	      0.00000000	      0.00000000	     15.93894978	    -18.09784302	      0.20475817	     65.72599158	     47.02938803	      0.00000000	      0.00000000
     14.45521429	     -4.31236565	     -5.01032805	     -5.34125676	      1.02203347	      0.93682698	      0.41529825	     36.85646402	     -3.71961923	     -5.23945681	     46.19562115	     46.19562115	      0.06810074	    -11.40754877	      1.37423686	      9.29625311	     -6.11213765	     -9.85053123	     16.62960440	     16.62960440	     12.28809467	    -11.38209459	     -2.20865612	    -13.14403624	      7.31456039	      3.10565064	     -4.10021704	    -14.41223055	     -8.73979500	     36.31071054	     47.01775201	      0.00000000	      0.00000000	     17.66048486	    -18.51211842	     -0.35630752	     67.45893102	     47.11100278	      0.00000000	      0.00000000
     14.46657143	     -4.22892138	     -4.94490912	     -5.50776170	      1.02137372	      0.93672116	      0.41579245	     36.37272168	     -3.64824377	     -5.72131386	     42.20582233	     42.20582233	      0.15834277	     -9.33616188	      1.00083875	      8.39814339	     -5.99410105	    -10.14124928	     16.14716748	     16.14716748	     12.48897230	    -11.13158904	     -2.52412250	    -13.32834963	      7.23470100	      3.76903289	     -5.49687295	    -14.53570305	     -9.10321943	     32.67124003	     47.15402092	      0.00000000	      0.00000000	     19.27794410	    -18.31909433	     -0.94562875	     70.73044601	     47.22513628	      0.00000000	      0.00000000
     14.47792857	     -4.35840521	     -4.95305723	     -5.53370360	      1.02083186	      0.93623953	      0.41643550	     35.86377573	     -3.47481007	     -6.36613601	     37.96457531	     37.96457531	      0.11013159	     -7.33643296	      0.48143626	      7.74948783	     -5.98367082	    -10.29596343	     15.65794453	     15.65794453	     12.62131123	    -10.83359130	     -3.04974293	    -13.16396934	      7.25823088	      3.41505301	     -6.07220115	    -14.37540863	     -9.79427753	     28.83078426	     47.32159230	      0.00000000	      0.00000000	     20.21071820	    -18.82958139	     -1.75853298	     73.85951536	     47.35580354	      0.00000000	      0.00000000
     14.48928571	     -4.55535947	     -5.02307248	     -5.52990079	      1.02028335	      0.93550592	      0.41723301	     35.27896830	     -3.10887650	     -6.86229375	     33.64964553	     33.64964553	      0.12626718	     -5.67102825	      1.02142716	      7.29276187	     -6.06311123	    -10.33002795	     15.40570793	     15.40570793	     12.91539786	    -10.71953462	     -3.25682683	    -12.92352885	      7.43451019	      3.13814283	     -7.53316817	    -14.34431971	     -9.89130562	     27.75800453	     47.35430757	      0.00000000	      0.00000000	     21.66340331	    -19.32841477	     -2.25311492	     75.23789847	     47.42394604	      0.00000000	      0.00000000
     14.50064286	     -4.42551458	     -4.93805930	     -5.48858475	      1.02032979	      0.93493616	      0.41795898	     34.25270009	     -3.05707396	     -7.71875282	     29.52975291	     29.52975291	      0.38644267	     -3.22018879	      1.41152535	      6.32776049	     -5.94175127	    -10.57185564	     14.90539215	     14.90539215	     13.03509147	    -10.27166508	     -4.21130200	    -13.01558813	      7.32195462	      2.62975936	     -7.91631133	    -14.23107197	    -10.97268566	     24.09462980	     47.53336304	      0.00000000	      0.00000000	     22.11194101	    -19.75164947	     -3.46759861	     79.26476463	     47.62291182	      0.00000000	      0.00000000
